<?xml version="1.0" encoding="utf-8"?>
<!-- Generator: Adobe Illustrator 24.3.0, SVG Export Plug-In . SVG Version: 6.00 Build 0)  -->
<svg version="1.1" id="Ebene_1" xmlns="http://www.w3.org/2000/svg" xmlns:xlink="http://www.w3.org/1999/xlink" x="0px" y="0px"
	 viewBox="0 0 590 136" style="enable-background:new 0 0 590 136;" xml:space="preserve">
<style type="text/css">
	.st0{fill:#D72305;}
</style>
<g>
	<g>
		<path class="st0" d="M38.49,47.91V32.73c0-0.25,0.22-0.46,0.48-0.46h2.39c0.26,0,0.48,0.21,0.48,0.46v5.75
			c0,0.14,0.1,0.23,0.24,0.23h3.59c0.14,0,0.24-0.09,0.24-0.23v-5.75c0-0.25,0.22-0.46,0.48-0.46h2.39c0.26,0,0.48,0.21,0.48,0.46
			v15.18c0,0.25-0.22,0.46-0.48,0.46h-2.39c-0.26,0-0.48-0.21-0.48-0.46v-5.75c0-0.14-0.1-0.23-0.24-0.23h-3.59
			c-0.14,0-0.24,0.09-0.24,0.23v5.75c0,0.25-0.33,0.46-0.6,0.46h-2.27C38.71,48.37,38.49,48.16,38.49,47.91z"/>
		<path class="st0" d="M53.2,46.81c-0.77-1.01-1.05-2.16-1.05-4.19c0-2.02,0.29-3.17,1.05-4.19c0.84-1.13,2.32-1.82,4-1.82
			c1.67,0,3.16,0.69,4,1.82c0.77,1.01,1.05,2.16,1.05,4.19c0,2.02-0.29,3.17-1.05,4.19c-0.84,1.13-2.32,1.82-4,1.82
			C55.53,48.62,54.04,47.93,53.2,46.81z M58.71,45.08c0.29-0.39,0.38-0.99,0.38-2.46c0-1.47-0.1-2.07-0.38-2.46
			c-0.31-0.39-0.74-0.55-1.51-0.55c-0.74,0-1.2,0.16-1.51,0.55c-0.29,0.39-0.38,0.99-0.38,2.46c0,1.47,0.1,2.07,0.38,2.46
			c0.31,0.39,0.77,0.55,1.51,0.55C57.97,45.63,58.4,45.47,58.71,45.08z"/>
		<path class="st0" d="M65.55,46.81c-0.77-1.01-1.05-2.16-1.05-4.19c0-2.02,0.29-3.17,1.05-4.19c0.84-1.13,2.32-1.82,4-1.82
			c1.46,0,2.63,0.35,3.45,1.03c0.93,0.78,1.46,2.05,1.46,3.47c0,0.28-0.17,0.46-0.41,0.46h-2.2c-0.26,0-0.43-0.14-0.45-0.37
			c-0.1-0.64-0.24-0.99-0.5-1.24c-0.29-0.25-0.72-0.37-1.34-0.37c-0.74,0-1.2,0.16-1.51,0.55c-0.29,0.39-0.38,0.99-0.38,2.46
			c0,1.47,0.1,2.07,0.38,2.46c0.31,0.39,0.77,0.55,1.51,0.55c0.67,0,1.05-0.09,1.32-0.3c0.29-0.23,0.41-0.53,0.53-1.36
			c0.02-0.21,0.19-0.32,0.45-0.32h2.2c0.24,0,0.41,0.18,0.41,0.46c0,1.29-0.41,2.41-1.12,3.17c-0.84,0.87-2.15,1.33-3.78,1.33
			C67.87,48.62,66.38,47.93,65.55,46.81z"/>
		<path class="st0" d="M76.93,47.91V32.48c0-0.25,0.22-0.46,0.48-0.46h2.15c0.26,0,0.48,0.21,0.48,0.46v4.14
			c0,0.3,0.17,0.53,0.45,0.53c0.24,0,0.86-0.53,2.06-0.53c2.58,0,4.19,1.61,4.19,4.25v7.04c0,0.25-0.22,0.46-0.48,0.46h-2.15
			c-0.26,0-0.48-0.21-0.48-0.46V41.1c0-0.99-0.65-1.59-1.79-1.59c-1.12,0-1.79,0.57-1.79,1.49v6.9c0,0.25-0.22,0.46-0.48,0.46h-2.15
			C77.15,48.37,76.93,48.16,76.93,47.91z"/>
		<path class="st0" d="M88.89,44.55c0-0.25,0.19-0.41,0.48-0.41h2.06c0.29,0,0.48,0.16,0.48,0.41c0,0.99,0.62,1.47,1.89,1.47
			c1.17,0,1.77-0.34,1.77-1.01c0-0.6-0.53-0.87-2.42-1.29c-2.61-0.55-3.83-1.77-3.83-3.77c0-1.98,1.84-3.33,4.47-3.33
			c2.78,0,4.55,1.4,4.55,3.63c0,0.25-0.19,0.41-0.48,0.41h-1.94c-0.29,0-0.48-0.16-0.48-0.41c0-0.71-0.57-1.1-1.63-1.1
			c-0.86,0-1.41,0.35-1.41,0.9c0,0.57,0.43,0.8,2.44,1.29c2.87,0.67,3.83,1.56,3.83,3.61c0,2.3-1.82,3.68-4.88,3.68
			C90.71,48.62,88.89,47.1,88.89,44.55z"/>
		<path class="st0" d="M101.69,46.81c-0.77-1.01-1.05-2.16-1.05-4.19c0-2.02,0.29-3.17,1.05-4.19c0.84-1.13,2.32-1.82,4-1.82
			c1.46,0,2.63,0.35,3.45,1.03c0.93,0.78,1.46,2.05,1.46,3.47c0,0.28-0.17,0.46-0.41,0.46h-2.2c-0.26,0-0.43-0.14-0.45-0.37
			c-0.1-0.64-0.24-0.99-0.5-1.24c-0.29-0.25-0.72-0.37-1.34-0.37c-0.74,0-1.2,0.16-1.51,0.55c-0.29,0.39-0.38,0.99-0.38,2.46
			c0,1.47,0.1,2.07,0.38,2.46c0.31,0.39,0.77,0.55,1.51,0.55c0.67,0,1.05-0.09,1.32-0.3c0.29-0.23,0.41-0.53,0.53-1.36
			c0.02-0.21,0.19-0.32,0.45-0.32h2.2c0.24,0,0.41,0.18,0.41,0.46c0,1.29-0.41,2.41-1.12,3.17c-0.84,0.87-2.15,1.33-3.78,1.33
			C104.01,48.62,102.53,47.93,101.69,46.81z"/>
		<path class="st0" d="M113.08,47.91V32.48c0-0.25,0.22-0.46,0.48-0.46h2.15c0.26,0,0.48,0.21,0.48,0.46v4.14
			c0,0.3,0.17,0.53,0.45,0.53c0.24,0,0.86-0.53,2.06-0.53c2.58,0,4.19,1.61,4.19,4.25v7.04c0,0.25-0.22,0.46-0.48,0.46h-2.15
			c-0.26,0-0.48-0.21-0.48-0.46V41.1c0-0.99-0.65-1.59-1.79-1.59c-1.12,0-1.79,0.57-1.79,1.49v6.9c0,0.25-0.22,0.46-0.48,0.46h-2.15
			C113.29,48.37,113.08,48.16,113.08,47.91z"/>
		<path class="st0" d="M135.56,37.33v10.58c0,0.25-0.22,0.46-0.48,0.46h-1.2c-0.19,0-0.31-0.05-0.43-0.16
			c-0.19-0.25-0.31-0.6-0.65-0.6c-0.57,0-0.96,1.01-2.87,1.01c-2.58,0-4.19-1.61-4.19-4.25v-7.04c0-0.25,0.22-0.46,0.48-0.46h2.15
			c0.26,0,0.48,0.21,0.48,0.46v6.81c0,1.01,0.67,1.59,1.79,1.59c1.12,0,1.79-0.57,1.79-1.49v-6.9c0-0.25,0.22-0.46,0.48-0.46h2.15
			C135.35,36.87,135.56,37.08,135.56,37.33z"/>
		<path class="st0" d="M138.64,47.91V32.48c0-0.25,0.22-0.46,0.48-0.46h2.15c0.26,0,0.48,0.21,0.48,0.46v15.43
			c0,0.25-0.22,0.46-0.48,0.46h-2.15C138.86,48.37,138.64,48.16,138.64,47.91z"/>
		<path class="st0" d="M145.49,46.81c-0.77-1.01-1.05-2.16-1.05-4.19c0-2.02,0.29-3.17,1.05-4.19c0.84-1.13,2.32-1.82,4-1.82
			c3.13,0,4.88,1.95,4.88,5.45v1.01c0,0.25-0.21,0.46-0.48,0.46h-6.2c-0.14,0-0.24,0.09-0.24,0.23c0,1.52,0.62,2.21,2.03,2.21
			c0.98,0,1.55-0.34,1.84-1.1c0.1-0.25,0.29-0.39,0.55-0.39h2.03c0.31,0,0.48,0.21,0.41,0.51c-0.6,2.3-2.37,3.63-4.83,3.63
			C147.81,48.62,146.32,47.93,145.49,46.81z M151.28,41.24c0.14,0,0.24-0.07,0.24-0.21c0-1.13-0.88-1.98-2.03-1.98
			c-1.27,0-2.08,0.78-2.08,1.98c0,0.14,0.1,0.21,0.24,0.21H151.28z"/>
		<path class="st0" d="M162.18,47.91V32.73c0-0.25,0.22-0.46,0.48-0.46h2.37c0.26,0,0.48,0.21,0.48,0.46v5.63
			c0,0.09,0.05,0.14,0.12,0.14c0.05,0,0.1-0.05,0.17-0.14l4.02-5.86c0.07-0.11,0.17-0.23,0.53-0.23h2.61c0.31,0,0.5,0.23,0.5,0.51
			c0,0.12-0.02,0.23-0.1,0.32l-4.79,6.58c-0.1,0.14-0.14,0.25-0.14,0.37c0,0.14,0.05,0.25,0.14,0.39l4.86,6.99
			c0.1,0.14,0.14,0.25,0.14,0.44c0,0.28-0.22,0.51-0.6,0.51h-2.58c-0.36,0-0.48-0.16-0.62-0.37l-3.92-6.16
			c-0.07-0.11-0.14-0.21-0.22-0.21c-0.07,0-0.12,0.05-0.12,0.14v6.14c0,0.25-0.21,0.46-0.48,0.46h-2.37
			C162.4,48.37,162.18,48.16,162.18,47.91z"/>
		<path class="st0" d="M174.38,44.83c0-1.79,1.36-3.59,4.12-3.59h2.44c0.14,0,0.24-0.09,0.24-0.23v-0.37c0-0.94-0.79-1.4-1.84-1.4
			c-0.5,0-1.48,0.11-1.65,0.76c-0.1,0.39-0.21,0.44-0.65,0.44h-1.72c-0.26,0-0.48-0.21-0.48-0.46c0-1.75,1.75-3.36,4.62-3.36
			c2.9,0,4.79,1.49,4.79,4.16v7.13c0,0.25-0.22,0.46-0.48,0.46h-1.2c-0.14,0-0.29-0.05-0.33-0.16c-0.1-0.18-0.26-0.46-0.55-0.46
			c-0.43,0-1.08,0.87-3.11,0.87C176.1,48.62,174.38,47.24,174.38,44.83z M181.3,44.46v-0.55c0-0.14-0.1-0.23-0.24-0.23h-2.22
			c-1.03,0-1.41,0.53-1.41,1.15c0,0.85,0.72,1.22,1.58,1.22C180.24,46.05,181.3,45.66,181.3,44.46z"/>
		<path class="st0" d="M187.23,47.91V37.33c0-0.25,0.21-0.46,0.48-0.46h1.2c0.19,0,0.43,0.12,0.5,0.3c0.14,0.39,0.24,0.97,0.65,0.97
			c0.74,0,1.05-1.26,3.42-1.26h0.81c0.26,0,0.48,0.21,0.48,0.46v2.18c0,0.25-0.22,0.46-0.48,0.46h-0.84c-1.79,0-3.11,0.8-3.11,2.55
			v5.38c0,0.25-0.22,0.46-0.48,0.46h-2.15C187.44,48.37,187.23,48.16,187.23,47.91z"/>
		<path class="st0" d="M196.67,47.91V32.48c0-0.25,0.22-0.46,0.48-0.46h2.15c0.26,0,0.48,0.21,0.48,0.46v15.43
			c0,0.25-0.21,0.46-0.48,0.46h-2.15C196.89,48.37,196.67,48.16,196.67,47.91z"/>
		<path class="st0" d="M202.03,44.55c0-0.25,0.19-0.41,0.48-0.41h2.06c0.29,0,0.48,0.16,0.48,0.41c0,0.99,0.62,1.47,1.89,1.47
			c1.17,0,1.77-0.34,1.77-1.01c0-0.6-0.53-0.87-2.42-1.29c-2.61-0.55-3.83-1.77-3.83-3.77c0-1.98,1.84-3.33,4.47-3.33
			c2.78,0,4.55,1.4,4.55,3.63c0,0.25-0.19,0.41-0.48,0.41h-1.94c-0.29,0-0.48-0.16-0.48-0.41c0-0.71-0.57-1.1-1.63-1.1
			c-0.86,0-1.41,0.35-1.41,0.9c0,0.57,0.43,0.8,2.44,1.29c2.87,0.67,3.83,1.56,3.83,3.61c0,2.3-1.82,3.68-4.88,3.68
			C203.85,48.62,202.03,47.1,202.03,44.55z"/>
		<path class="st0" d="M214.21,47.91V37.33c0-0.25,0.22-0.46,0.48-0.46h1.2c0.19,0,0.43,0.12,0.5,0.3c0.14,0.39,0.24,0.97,0.65,0.97
			c0.74,0,1.05-1.26,3.42-1.26h0.81c0.26,0,0.48,0.21,0.48,0.46v2.18c0,0.25-0.21,0.46-0.48,0.46h-0.84c-1.79,0-3.11,0.8-3.11,2.55
			v5.38c0,0.25-0.21,0.46-0.48,0.46h-2.15C214.42,48.37,214.21,48.16,214.21,47.91z"/>
		<path class="st0" d="M233.35,37.33v10.58c0,0.25-0.21,0.46-0.48,0.46h-1.2c-0.19,0-0.31-0.05-0.43-0.16
			c-0.19-0.25-0.31-0.6-0.65-0.6c-0.57,0-0.96,1.01-2.87,1.01c-2.58,0-4.19-1.61-4.19-4.25v-7.04c0-0.25,0.21-0.46,0.48-0.46h2.15
			c0.26,0,0.48,0.21,0.48,0.46v6.81c0,1.01,0.67,1.59,1.79,1.59s1.79-0.57,1.79-1.49v-6.9c0-0.25,0.21-0.46,0.48-0.46h2.15
			C233.13,36.87,233.35,37.08,233.35,37.33z"/>
		<path class="st0" d="M236.43,47.91V32.48c0-0.25,0.21-0.46,0.48-0.46h2.15c0.26,0,0.48,0.21,0.48,0.46v4.14
			c0,0.3,0.17,0.53,0.45,0.53c0.24,0,0.86-0.53,2.06-0.53c2.58,0,4.19,1.61,4.19,4.25v7.04c0,0.25-0.22,0.46-0.48,0.46h-2.15
			c-0.26,0-0.48-0.21-0.48-0.46V41.1c0-0.99-0.65-1.59-1.79-1.59c-1.12,0-1.79,0.57-1.79,1.49v6.9c0,0.25-0.22,0.46-0.48,0.46h-2.15
			C236.64,48.37,236.43,48.16,236.43,47.91z"/>
		<path class="st0" d="M249.85,46.81c-0.77-1.01-1.05-2.16-1.05-4.19c0-2.02,0.29-3.17,1.05-4.19c0.84-1.13,2.32-1.82,4-1.82
			c3.13,0,4.88,1.95,4.88,5.45v1.01c0,0.25-0.21,0.46-0.48,0.46h-6.2c-0.14,0-0.24,0.09-0.24,0.23c0,1.52,0.62,2.21,2.03,2.21
			c0.98,0,1.56-0.34,1.84-1.1c0.1-0.25,0.29-0.39,0.55-0.39h2.03c0.31,0,0.48,0.21,0.41,0.51c-0.6,2.3-2.37,3.63-4.83,3.63
			C252.17,48.62,250.69,47.93,249.85,46.81z M255.64,41.24c0.14,0,0.24-0.07,0.24-0.21c0-1.13-0.89-1.98-2.03-1.98
			c-1.27,0-2.08,0.78-2.08,1.98c0,0.14,0.1,0.21,0.24,0.21H255.64z"/>
	</g>
	<g>
		<path class="st0" d="M38.66,69.16V58.24c0-0.25,0.22-0.46,0.48-0.46h0.57c0.26,0,0.48,0.21,0.48,0.46v10.92
			c0,1.84,1.58,3.47,3.61,3.47s3.61-1.63,3.61-3.47V58.24c0-0.25,0.22-0.46,0.48-0.46h0.57c0.26,0,0.48,0.21,0.48,0.46v10.92
			c0,2.74-2.3,4.94-5.14,4.94C40.96,74.11,38.66,71.9,38.66,69.16z"/>
		<path class="st0" d="M52.63,73.42V62.84c0-0.25,0.22-0.46,0.48-0.46h0.38c0.14,0,0.24,0.07,0.33,0.16
			c0.12,0.21,0.24,0.46,0.48,0.46c0.65,0,0.86-0.85,3.18-0.85c2.27,0,4.04,1.29,4.04,3.82v7.45c0,0.25-0.22,0.46-0.48,0.46H60.6
			c-0.26,0-0.48-0.21-0.48-0.46v-7.24c0-1.84-1.32-2.67-3.04-2.67c-1.72,0-3.04,0.83-3.04,2.67v7.24c0,0.25-0.22,0.46-0.48,0.46
			h-0.45C52.85,73.88,52.63,73.67,52.63,73.42z"/>
		<path class="st0" d="M64.61,59.28v-1.36c0-0.18,0.17-0.37,0.38-0.37h1.39c0.22,0,0.38,0.18,0.38,0.37v1.36
			c0,0.21-0.17,0.37-0.38,0.37H65C64.78,59.64,64.61,59.48,64.61,59.28z M65.93,73.88h-0.48c-0.33,0-0.48-0.21-0.48-0.46V62.84
			c0-0.25,0.14-0.46,0.48-0.46h0.48c0.33,0,0.48,0.21,0.48,0.46v10.58C66.41,73.67,66.26,73.88,65.93,73.88z"/>
		<path class="st0" d="M72.89,73.53l-4.14-10.39c-0.07-0.16-0.1-0.28-0.1-0.37c0-0.21,0.17-0.39,0.45-0.39h0.62
			c0.22,0,0.36,0.09,0.45,0.35l3.57,9.27c0.05,0.14,0.12,0.18,0.19,0.18c0.07,0,0.17-0.05,0.22-0.18l3.56-9.27
			c0.1-0.25,0.24-0.35,0.45-0.35h0.62c0.29,0,0.45,0.18,0.45,0.39c0,0.09-0.02,0.21-0.1,0.37l-4.14,10.39
			c-0.1,0.23-0.24,0.34-0.45,0.34h-1.22C73.13,73.88,72.99,73.76,72.89,73.53z"/>
		<path class="st0" d="M81.79,72.38c-0.77-1.13-1.03-2.21-1.03-4.25c0-1.86,0.29-2.94,1.1-4.16c0.79-1.17,2.13-1.82,3.8-1.82
			c2.99,0,4.83,1.93,4.83,5.04v1.03c0,0.25-0.22,0.46-0.48,0.46h-7.51c-0.14,0-0.24,0.09-0.24,0.23c0,2.46,1.24,3.84,3.45,3.84
			c1.53,0,2.75-0.57,3.21-2.16c0.07-0.25,0.29-0.39,0.55-0.39h0.48c0.29,0,0.45,0.18,0.41,0.46c-0.29,2.05-2.18,3.45-4.64,3.45
			C83.92,74.11,82.55,73.51,81.79,72.38z M88.75,67.39c0.14,0,0.24-0.09,0.24-0.23c0-2.35-1.2-3.66-3.3-3.66
			c-2.08,0-3.4,1.4-3.4,3.66c0,0.14,0.1,0.23,0.24,0.23H88.75z"/>
		<path class="st0" d="M93.63,73.42V62.84c0-0.25,0.22-0.46,0.48-0.46h0.31c0.26,0,0.41,0.14,0.48,0.46c0.07,0.3,0.07,0.8,0.43,0.8
			c0.62,0,1.05-1.26,3.23-1.26h0.29c0.26,0,0.48,0.21,0.48,0.46v0.48c0,0.25-0.22,0.46-0.48,0.46h-0.31c-1.53,0-3.49,0.83-3.49,3.89
			v5.75c0,0.25-0.22,0.46-0.48,0.46h-0.45C93.84,73.88,93.63,73.67,93.63,73.42z"/>
		<path class="st0" d="M100.25,70.13c0-0.25,0.22-0.46,0.48-0.46h0.48c0.26,0,0.48,0.21,0.48,0.46c0,1.68,1.2,2.69,3.21,2.69
			c1.99,0,3.13-0.74,3.13-2.02c0-1.29-0.77-1.79-3.47-2.32c-2.66-0.51-3.78-1.47-3.78-3.24c0-1.79,1.77-3.08,4.19-3.08
			c2.61,0,4.23,1.31,4.23,3.45c0,0.25-0.22,0.46-0.48,0.46h-0.48c-0.26,0-0.48-0.21-0.48-0.46c0-1.47-0.91-2.18-2.8-2.18
			c-1.67,0-2.68,0.69-2.68,1.82c0,1.06,0.69,1.49,3.35,2.09c2.94,0.67,3.83,1.47,3.83,3.47c0,2.02-1.79,3.31-4.57,3.31
			C102.02,74.11,100.25,72.59,100.25,70.13z"/>
		<path class="st0" d="M111.95,59.28v-1.36c0-0.18,0.17-0.37,0.38-0.37h1.39c0.22,0,0.38,0.18,0.38,0.37v1.36
			c0,0.21-0.17,0.37-0.38,0.37h-1.39C112.12,59.64,111.95,59.48,111.95,59.28z M113.27,73.88h-0.48c-0.33,0-0.48-0.21-0.48-0.46
			V62.84c0-0.25,0.14-0.46,0.48-0.46h0.48c0.33,0,0.48,0.21,0.48,0.46v10.58C113.75,73.67,113.6,73.88,113.27,73.88z"/>
		<path class="st0" d="M118.67,70.2v-6.12c0-0.14-0.1-0.23-0.24-0.23h-1.94c-0.26,0-0.48-0.21-0.48-0.46v-0.44
			c0-0.25,0.22-0.46,0.48-0.46h1.94c0.14,0,0.24-0.09,0.24-0.23V58.7c0-0.25,0.22-0.46,0.48-0.46h0.48c0.26,0,0.48,0.21,0.48,0.46
			v3.56c0,0.14,0.1,0.23,0.24,0.23h3.01c0.26,0,0.48,0.21,0.48,0.46v0.44c0,0.25-0.22,0.46-0.48,0.46h-3.01
			c-0.14,0-0.24,0.09-0.24,0.23v6.12c0,1.56,0.57,2.32,2.27,2.32h1.22c0.26,0,0.48,0.21,0.48,0.46v0.44c0,0.25-0.22,0.46-0.48,0.46
			h-1.22C119.89,73.88,118.67,72.84,118.67,70.2z"/>
		<path class="st0" d="M127.93,78.11c0-0.11,0.02-0.23,0.07-0.34l1.67-4.37c0.05-0.11,0.07-0.18,0.07-0.23
			c0-0.07-0.02-0.14-0.07-0.25l-4.38-9.77c-0.07-0.16-0.1-0.28-0.1-0.37c0-0.21,0.17-0.39,0.45-0.39h0.67
			c0.22,0,0.33,0.07,0.45,0.35l3.66,8.42c0.05,0.11,0.07,0.14,0.12,0.14c0.05,0,0.07-0.02,0.12-0.14l3.18-8.42
			c0.12-0.28,0.24-0.35,0.45-0.35h0.67c0.29,0,0.45,0.18,0.45,0.39c0,0.09-0.02,0.21-0.1,0.37l-5.98,14.99
			c-0.1,0.25-0.24,0.35-0.45,0.35h-0.53C128.07,78.48,127.93,78.34,127.93,78.11z"/>
		<path class="st0" d="M142.78,72.04c-0.62-0.97-0.84-1.84-0.84-3.91c0-2.07,0.19-2.97,0.84-3.91c0.89-1.29,2.3-2.07,4.04-2.07
			c1.75,0,3.21,0.76,4.04,2.07c0.65,0.94,0.84,1.84,0.84,3.91c0,2.07-0.19,2.97-0.84,3.91c-0.84,1.31-2.3,2.07-4.04,2.07
			C145.08,74.11,143.62,73.35,142.78,72.04z M149.77,70.98c0.33-0.67,0.43-1.29,0.43-2.85c0-1.56-0.1-2.18-0.43-2.85
			c-0.53-1.08-1.65-1.77-2.94-1.77c-1.29,0-2.39,0.69-2.94,1.77c-0.34,0.67-0.43,1.29-0.43,2.85c0,1.56,0.1,2.18,0.43,2.85
			c0.55,1.08,1.65,1.77,2.94,1.77C148.12,72.75,149.24,72.06,149.77,70.98z"/>
		<path class="st0" d="M155.89,73.42v-9.34c0-0.14-0.1-0.23-0.24-0.23h-2.08c-0.26,0-0.48-0.21-0.48-0.46v-0.44
			c0-0.25,0.21-0.46,0.48-0.46h2.08c0.14,0,0.24-0.09,0.24-0.23v-0.41c0-2.64,1.58-4.3,4.07-4.3h0.12c0.26,0,0.48,0.21,0.48,0.46
			v0.37c0,0.25-0.21,0.46-0.48,0.46h-0.12c-1.65,0-2.63,1.13-2.63,3.01v0.41c0,0.14,0.1,0.23,0.24,0.23h2.73
			c0.26,0,0.48,0.21,0.48,0.46v0.44c0,0.25-0.21,0.46-0.48,0.46h-2.73c-0.14,0-0.24,0.09-0.24,0.23v9.34c0,0.25-0.21,0.46-0.48,0.46
			h-0.48C156.11,73.88,155.89,73.67,155.89,73.42z"/>
	</g>
	<g>
		<path class="st0" d="M37.35,99.02c0-0.09,0.02-0.18,0.05-0.25l4.55-15.15c0.07-0.23,0.24-0.35,0.45-0.35h1.2
			c0.22,0,0.38,0.12,0.45,0.35l4.55,15.15c0.02,0.07,0.05,0.16,0.05,0.25c0,0.18-0.17,0.34-0.5,0.34h-0.6
			c-0.22,0-0.38-0.11-0.45-0.34l-1.17-3.89c-0.07-0.23-0.24-0.32-0.45-0.32h-4.93c-0.22,0-0.38,0.09-0.45,0.32l-1.17,3.89
			c-0.07,0.23-0.24,0.34-0.45,0.34h-0.6C37.51,99.37,37.35,99.21,37.35,99.02z M45.1,93.39c0.14,0,0.24-0.07,0.19-0.25l-2.18-7.82
			c-0.02-0.09-0.05-0.14-0.1-0.14h-0.05c-0.05,0-0.07,0.05-0.1,0.14l-2.18,7.82c-0.05,0.18,0.05,0.25,0.19,0.25H45.1z"/>
		<path class="st0" d="M51,103.51V88.33c0-0.25,0.22-0.46,0.48-0.46h0.38c0.17,0,0.26,0.05,0.36,0.21c0.17,0.3,0.36,0.44,0.57,0.44
			c0.57,0,0.84-0.87,2.75-0.87c1.7,0,3.06,0.69,3.76,1.89c0.6,1.08,0.81,2.18,0.81,4.09c0,1.98-0.22,3.06-0.81,4.09
			c-0.69,1.2-2.06,1.89-3.76,1.89c-1.87,0-2.15-0.69-2.66-0.69c-0.33,0-0.48,0.21-0.48,0.69v3.91c0,0.25-0.22,0.46-0.48,0.46h-0.45
			C51.22,103.97,51,103.76,51,103.51z M58.28,96.47c0.26-0.71,0.36-1.43,0.36-2.85c0-1.45-0.1-2.21-0.36-2.85
			C57.75,89.53,56.94,89,55.55,89c-1.36,0-2.18,0.53-2.73,1.77c-0.26,0.64-0.36,1.4-0.36,2.85c0,1.43,0.1,2.14,0.36,2.85
			c0.5,1.24,1.34,1.77,2.73,1.77C56.94,98.24,57.77,97.71,58.28,96.47z"/>
		<path class="st0" d="M63.25,103.51V88.33c0-0.25,0.22-0.46,0.48-0.46h0.38c0.17,0,0.26,0.05,0.36,0.21
			c0.17,0.3,0.36,0.44,0.57,0.44c0.57,0,0.84-0.87,2.75-0.87c1.7,0,3.06,0.69,3.76,1.89c0.6,1.08,0.81,2.18,0.81,4.09
			c0,1.98-0.22,3.06-0.81,4.09c-0.69,1.2-2.06,1.89-3.76,1.89c-1.87,0-2.15-0.69-2.66-0.69c-0.33,0-0.48,0.21-0.48,0.69v3.91
			c0,0.25-0.22,0.46-0.48,0.46h-0.45C63.47,103.97,63.25,103.76,63.25,103.51z M70.52,96.47c0.26-0.71,0.36-1.43,0.36-2.85
			c0-1.45-0.1-2.21-0.36-2.85C70,89.53,69.18,89,67.8,89c-1.36,0-2.18,0.53-2.73,1.77c-0.26,0.64-0.36,1.4-0.36,2.85
			c0,1.43,0.1,2.14,0.36,2.85c0.5,1.24,1.34,1.77,2.73,1.77C69.18,98.24,70.02,97.71,70.52,96.47z"/>
		<path class="st0" d="M75.5,98.91V83.5c0-0.25,0.22-0.46,0.48-0.46h0.48c0.26,0,0.48,0.21,0.48,0.46v15.41
			c0,0.25-0.22,0.46-0.48,0.46h-0.48C75.71,99.37,75.5,99.16,75.5,98.91z"/>
		<path class="st0" d="M80.14,84.77v-1.36c0-0.18,0.17-0.37,0.38-0.37h1.39c0.22,0,0.38,0.18,0.38,0.37v1.36
			c0,0.21-0.17,0.37-0.38,0.37h-1.39C80.3,85.14,80.14,84.97,80.14,84.77z M81.45,99.37h-0.48c-0.33,0-0.48-0.21-0.48-0.46V88.33
			c0-0.25,0.14-0.46,0.48-0.46h0.48c0.33,0,0.48,0.21,0.48,0.46v10.58C81.93,99.16,81.79,99.37,81.45,99.37z"/>
		<path class="st0" d="M86.07,97.87c-0.77-1.13-1.03-2.21-1.03-4.25c0-1.86,0.29-2.94,1.1-4.16c0.79-1.17,2.13-1.82,3.8-1.82
			c2.99,0,4.83,1.93,4.83,5.04v1.03c0,0.25-0.22,0.46-0.48,0.46h-7.51c-0.14,0-0.24,0.09-0.24,0.23c0,2.46,1.24,3.84,3.45,3.84
			c1.53,0,2.75-0.57,3.21-2.16c0.07-0.25,0.29-0.39,0.55-0.39h0.48c0.29,0,0.45,0.18,0.41,0.46c-0.29,2.05-2.18,3.45-4.64,3.45
			C88.2,99.6,86.84,99,86.07,97.87z M93.03,92.89c0.14,0,0.24-0.09,0.24-0.23c0-2.35-1.2-3.66-3.3-3.66c-2.08,0-3.4,1.4-3.4,3.66
			c0,0.14,0.1,0.23,0.24,0.23H93.03z"/>
		<path class="st0" d="M98.27,97.71c-0.6-1.03-0.81-2.12-0.81-4.09c0-1.98,0.22-3.06,0.81-4.09c0.69-1.2,2.06-1.89,3.76-1.89
			c1.87,0,2.15,0.69,2.66,0.69c0.33,0,0.48-0.21,0.48-0.69V83.5c0-0.25,0.22-0.46,0.48-0.46h0.45c0.26,0,0.48,0.21,0.48,0.46v15.41
			c0,0.25-0.22,0.46-0.48,0.46h-0.38c-0.17,0-0.26-0.05-0.36-0.21c-0.17-0.3-0.36-0.44-0.57-0.44c-0.57,0-0.84,0.87-2.75,0.87
			C100.33,99.6,98.96,98.91,98.27,97.71z M104.75,96.47c0.26-0.64,0.36-1.33,0.36-2.85c0-1.43-0.1-2.14-0.36-2.85
			c-0.5-1.24-1.34-1.77-2.73-1.77c-1.39,0-2.23,0.53-2.73,1.77c-0.26,0.71-0.36,1.43-0.36,2.85c0,1.45,0.1,2.21,0.36,2.85
			c0.53,1.24,1.34,1.77,2.73,1.77C103.39,98.24,104.2,97.71,104.75,96.47z"/>
		<path class="st0" d="M114.56,94.77V94.4c0-0.25,0.22-0.46,0.48-0.46h0.62c0.26,0,0.48,0.21,0.48,0.46v0.37
			c0,2.12,1.48,3.36,3.57,3.36c2.06,0,3.52-1.06,3.52-3.13c0-2.12-1.58-2.81-3.92-3.45c-2.08-0.57-4.28-1.7-4.28-4.46
			c0-2.78,2.42-4.05,4.81-4.05c2.68,0,4.67,1.59,4.67,4.37v0.3c0,0.25-0.22,0.46-0.48,0.46h-0.6c-0.26,0-0.48-0.21-0.48-0.46v-0.3
			c0-1.93-1.34-2.9-3.11-2.9c-1.89,0-3.18,0.83-3.18,2.58c0,1.93,1.89,2.67,4.07,3.27c2.22,0.62,4.14,1.82,4.14,4.64
			c0,2.97-2.49,4.6-5.14,4.6C116.76,99.6,114.56,97.94,114.56,94.77z"/>
		<path class="st0" d="M128.1,97.53c-0.77-1.13-0.84-2.25-0.84-3.91c0-1.66,0.07-2.78,0.84-3.91c0.84-1.24,2.23-2.07,4.04-2.07
			c1.32,0,2.46,0.35,3.25,1.03c0.81,0.74,1.24,1.82,1.24,2.87c0,0.25-0.14,0.46-0.41,0.46h-0.6c-0.22,0-0.45-0.11-0.45-0.37
			c0-0.74-0.29-1.52-0.89-2.02c-0.53-0.41-1.27-0.62-2.15-0.62c-1.32,0-2.39,0.62-2.94,1.77c-0.36,0.74-0.43,1.52-0.43,2.85
			c0,1.33,0.07,2.12,0.43,2.85c0.55,1.15,1.63,1.77,2.94,1.77c1.08,0,1.87-0.32,2.34-0.85c0.45-0.51,0.67-1.2,0.67-1.77
			c0-0.3,0.24-0.39,0.45-0.39h0.55c0.26,0,0.48,0.21,0.48,0.46c0,0.94-0.38,1.91-1.03,2.6c-0.79,0.83-2.01,1.31-3.47,1.31
			C130.32,99.6,128.93,98.77,128.1,97.53z"/>
		<path class="st0" d="M139.22,84.77v-1.36c0-0.18,0.17-0.37,0.38-0.37h1.39c0.22,0,0.38,0.18,0.38,0.37v1.36
			c0,0.21-0.17,0.37-0.38,0.37h-1.39C139.39,85.14,139.22,84.97,139.22,84.77z M140.53,99.37h-0.48c-0.33,0-0.48-0.21-0.48-0.46
			V88.33c0-0.25,0.14-0.46,0.48-0.46h0.48c0.33,0,0.48,0.21,0.48,0.46v10.58C141.01,99.16,140.87,99.37,140.53,99.37z"/>
		<path class="st0" d="M145.18,97.87c-0.77-1.13-1.03-2.21-1.03-4.25c0-1.86,0.29-2.94,1.1-4.16c0.79-1.17,2.13-1.82,3.8-1.82
			c2.99,0,4.83,1.93,4.83,5.04v1.03c0,0.25-0.22,0.46-0.48,0.46h-7.51c-0.14,0-0.24,0.09-0.24,0.23c0,2.46,1.24,3.84,3.45,3.84
			c1.53,0,2.75-0.57,3.21-2.16c0.07-0.25,0.29-0.39,0.55-0.39h0.48c0.29,0,0.46,0.18,0.41,0.46c-0.29,2.05-2.18,3.45-4.64,3.45
			C147.3,99.6,145.94,99,145.18,97.87z M152.14,92.89c0.14,0,0.24-0.09,0.24-0.23c0-2.35-1.2-3.66-3.3-3.66
			c-2.08,0-3.4,1.4-3.4,3.66c0,0.14,0.1,0.23,0.24,0.23H152.14z"/>
		<path class="st0" d="M156.99,98.91V88.33c0-0.25,0.22-0.46,0.48-0.46h0.38c0.14,0,0.24,0.07,0.33,0.16
			c0.12,0.21,0.24,0.46,0.48,0.46c0.65,0,0.86-0.85,3.18-0.85c2.27,0,4.04,1.29,4.04,3.82v7.45c0,0.25-0.22,0.46-0.48,0.46h-0.45
			c-0.26,0-0.48-0.21-0.48-0.46v-7.24c0-1.84-1.32-2.67-3.04-2.67c-1.72,0-3.04,0.83-3.04,2.67v7.24c0,0.25-0.21,0.46-0.48,0.46
			h-0.45C157.21,99.37,156.99,99.16,156.99,98.91z"/>
		<path class="st0" d="M169.74,97.53c-0.77-1.13-0.84-2.25-0.84-3.91c0-1.66,0.07-2.78,0.84-3.91c0.84-1.24,2.23-2.07,4.04-2.07
			c1.32,0,2.46,0.35,3.25,1.03c0.81,0.74,1.24,1.82,1.24,2.87c0,0.25-0.14,0.46-0.41,0.46h-0.6c-0.21,0-0.46-0.11-0.46-0.37
			c0-0.74-0.29-1.52-0.88-2.02c-0.53-0.41-1.27-0.62-2.15-0.62c-1.32,0-2.39,0.62-2.94,1.77c-0.36,0.74-0.43,1.52-0.43,2.85
			c0,1.33,0.07,2.12,0.43,2.85c0.55,1.15,1.63,1.77,2.94,1.77c1.08,0,1.87-0.32,2.34-0.85c0.46-0.51,0.67-1.2,0.67-1.77
			c0-0.3,0.24-0.39,0.46-0.39h0.55c0.26,0,0.48,0.21,0.48,0.46c0,0.94-0.38,1.91-1.03,2.6c-0.79,0.83-2.01,1.31-3.47,1.31
			C171.97,99.6,170.58,98.77,169.74,97.53z"/>
		<path class="st0" d="M181.6,97.87c-0.77-1.13-1.03-2.21-1.03-4.25c0-1.86,0.29-2.94,1.1-4.16c0.79-1.17,2.13-1.82,3.8-1.82
			c2.99,0,4.83,1.93,4.83,5.04v1.03c0,0.25-0.22,0.46-0.48,0.46h-7.51c-0.14,0-0.24,0.09-0.24,0.23c0,2.46,1.24,3.84,3.45,3.84
			c1.53,0,2.75-0.57,3.21-2.16c0.07-0.25,0.29-0.39,0.55-0.39h0.48c0.29,0,0.46,0.18,0.41,0.46c-0.29,2.05-2.18,3.45-4.64,3.45
			C183.73,99.6,182.37,99,181.6,97.87z M188.57,92.89c0.14,0,0.24-0.09,0.24-0.23c0-2.35-1.2-3.66-3.3-3.66
			c-2.08,0-3.4,1.4-3.4,3.66c0,0.14,0.1,0.23,0.24,0.23H188.57z"/>
		<path class="st0" d="M192.61,95.62c0-0.25,0.22-0.46,0.48-0.46h0.48c0.26,0,0.48,0.21,0.48,0.46c0,1.68,1.2,2.69,3.21,2.69
			c1.99,0,3.13-0.74,3.13-2.02c0-1.29-0.77-1.79-3.47-2.32c-2.66-0.51-3.78-1.47-3.78-3.24c0-1.79,1.77-3.08,4.19-3.08
			c2.61,0,4.24,1.31,4.24,3.45c0,0.25-0.22,0.46-0.48,0.46h-0.48c-0.26,0-0.48-0.21-0.48-0.46c0-1.47-0.91-2.18-2.8-2.18
			c-1.67,0-2.68,0.69-2.68,1.82c0,1.06,0.69,1.49,3.35,2.09c2.94,0.67,3.83,1.47,3.83,3.47c0,2.02-1.79,3.31-4.57,3.31
			C194.38,99.6,192.61,98.08,192.61,95.62z"/>
	</g>
</g>
<g>
	<path class="st0" d="M456.81,87.03l-37.54-21.75l36.1-20.6c0.45-0.27,0.82-0.91,0.82-1.43V32.34c0-0.63-0.52-0.79-0.97-0.52
		L409.6,58.52V33.05c0-0.52-0.43-0.95-0.95-0.95h-9.59c-0.52,0-0.95,0.43-0.95,0.95v65.63c0,0.52,0.43,0.95,0.95,0.95h9.59
		c0.52,0,0.95-0.42,0.95-0.95V71.98l46.92,27.85c0.45,0.27,1.09,0.1,1.09-0.54l0.02-10.84C457.63,87.8,457.26,87.29,456.81,87.03"/>
	<path class="st0" d="M498.84,68.53l11.73-23.57l11.64,23.57H498.84z M550.97,98.58l-33.21-65.67c-0.24-0.47-0.67-0.85-1.28-0.85
		h-10.82c-0.63,0-1.15,0.41-1.39,0.84l-34.12,65.61c-0.24,0.46,0.02,1.07,0.7,1.07h11.47c0.52,0,1.14-0.38,1.37-0.85l9.96-19.67
		h33.55l9.86,19.67c0.23,0.47,0.85,0.85,1.37,0.85h11.86C550.92,99.59,551.2,99.05,550.97,98.58"/>
	<path class="st0" d="M363.86,33.01c0-0.52,0.43-0.95,0.95-0.95h9.59c0.52,0,0.95,0.43,0.95,0.95v65.63c0,0.52-0.43,0.95-0.95,0.95
		h-9.59c-0.52,0-0.95-0.43-0.95-0.95V33.01z M357.49,60.65h-28.74V33.01c0-0.52-0.43-0.95-0.95-0.95h-9.59
		c-0.52,0-0.95,0.43-0.95,0.95v27.63h-28.74c-0.52,0-0.95,0.43-0.95,0.95v8.47c0,0.52,0.43,0.95,0.95,0.95h28.74v27.63
		c0,0.52,0.43,0.95,0.95,0.95h9.59c0.52,0,0.95-0.43,0.95-0.95V71.01h28.74c0.52,0,0.95-0.43,0.95-0.95v-8.47
		C358.43,61.07,358.01,60.65,357.49,60.65"/>
</g>
</svg>
